<svg xmlns="http://www.w3.org/2000/svg" version="1.1" viewBox="0 0 468 455" shape-rendering="geometricPrecision" text-rendering="geometricPrecision" image-rendering="optimizeQuality" fill-rule="evenodd" clip-rule="evenodd">
  <circle cx="240" cy="228" r="228" fill="#a2d9f7"/>
  <path d="M197 451h86c16-3 32-8 46-14 0-2-1-5-1-7l-6-21c-2-7-3-14-5-21-1-4-5-18-5-21 2-2 20-8 24-10 3-2 5-3 8-4 3-2 5-3 7-5s3-4 5-7c1-2 3-4 5-6 1-1 6-5 7-5s6 7 15 6c2 0 6-2 7-3 7-7 4-49 3-60l-5-28c-2-9-5-19-10-28-1-1-2-2-2-3 4 0 7 0 10-1 18-6 33-17 43-32 2-4 5-8 8-13 8-10 24-23 29-32 6-13-1-26-14-32-10-3-18-8-27-12-10-4-16-8-23-11l-22-11c-7-4-14-9-21-13-8-3-16-6-25-8-11-2-33-3-41 7-3 4-3 6-3 13-5 1-18-3-42 2-2 1-4 1-6 2-12 2-4 3-19-1-8-2-17-3-26-4-4 0-10 1-15 0 0-8 0-14-11-18-8-2-17-3-26-2-17 2-29 6-44 15-7 4-14 6-19 9l-10 5c-3 1-7 3-10 5-3 1-6 3-9 4-6 3-24 12-29 15-11 6-32 11-21 32 3 5 10 11 14 15 5 4 10 9 15 14 9 13 12 22 25 34 7 5 19 13 28 15 8 2 8 1 12 2 0 1-2 5-3 7s-2 5-3 7c-7 20-12 50-10 72 0 8 1 29 9 32 6 4 11-1 14-4 1 0 3 1 3 2 3 2 5 6 7 9 3 7 3 8 9 12l15 7c3 2 11 5 14 6 0 4-5 18-7 22-2 6-8 26-13 43 20 11 42 19 65 23z" fill="#050205"/>
  <path d="M229 291c0-8 1-15 2-22 0-5-2-5-5-7s-6-3-8-4c-11-6-20-11-26-22-3-6-5-13-2-20 2-5 8-10 11-13 8-7 22-14 36-12s25 8 33 15c4 3 7 9 9 16 1 8-2 12-6 17-11 15-27 20-35 26-2 2-2 5-2 9 0 8-1 15-1 23 0 5 0 8 3 12 4 7 8 9 14 13 9 5 28 0 37-2 15-4 26-11 32-26 10-24 2-41 3-46v-1c1 1 1 3 2 4 2 5 4 10 5 15 3 14-1 31-9 42-15 20-41 22-43 24l-2 4c-7 12-26 19-40 20-17 0-30-4-39-14-2-3-4-5-6-8 0-1-2-4-2-4-1-1-16-3-25-8-7-5-8-8-13-13-3-4-7-12-9-18-3-8-4-13-3-23 0-4 1-8 1-11 1-2 2-9 4-10 1 1 0 5 0 6-1 16 1 31 8 44 6 10 11 17 23 22 16 7 29 6 45-1 3-2 5-2 6-6 3-8 2-10 2-21zm137 12c3 1 5 16 10 23 2 3 4 5 8 3 6-3 5-10 5-18 0-7 0-14-1-20-2-12-13-29-20-38-3-5-7-9-10-13-4-4-6-9-10-13-4-5-11-8-17-11-1-1-3-2-4-2-18-10-27-13-44-25-6-3-21-15-26-19-5-3-10-6-16-7-11-3-18 1-25 7-13 9-18 15-34 24-6 3-8 5-14 8l-31 15c-6 2-10 6-14 9-2 2-2 3-4 7-4 11-9 12-15 20-5 7-12 19-16 29-3 8-2 12-1 20 0 6 1 16 3 20 3 8 9 0 12-4 3-3 5-15 6-16 1 9-1 14-1 17 1 1 1 1 2 1l2 2c9 7 3 16 20 24l17 8c6 3 11 5 16 9 3 1 6 3 9 4 2 2 5 3 8 5 13 8 17 11 34 17 24 8 38 1 60-9 5-2 10-6 15-9 8-5 25-13 35-17 6-2 11-5 17-8 5-2 6-5 9-10 1-3 6-8 9-10 4-2 5-2 9-3 0-2-3-17-3-20z" fill="#eae2bb"/>
  <path d="M282 157c1 0 5-9 15-10 10 0 10 7 14 10 4-2 2-12 0-16-6-9-22-13-27-1-1 2-4 15-2 17zm-124-2c2 0 7-8 16-7 10 0 13 9 13 9 5-2 3-23-11-23-19 0-18 19-18 21z" fill="#fcfcfc"/>
  <path d="M269 332c-22-3-28-15-54-6-31 11 7 21 18 21 13 0 27-5 37-13l1-1v-1h-2z" fill="#e31e24"/>
  <path d="M324 92c1-7-7-20-11-16-3 4 2 7 4 9 1 2 6 7 7 7zm-177-3c3-1 11-5 12-9 3-6-1-12-8-1-1 2-4 7-4 10z" fill="#a44d1a"/>
  <path d="M172 127c6-1 14 3 17 7 9 9 9 26 2 36-4 5-9 8-15 10s-14-3-17-7c-4-3-7-12-7-17 0-7 1-14 5-19 5-6 7-8 15-10zm120-1c14-2 26 10 27 21 1 13-3 28-17 32-6 2-13 0-18-5s-7-9-8-16c-2-7-1-14 2-21 3-6 7-9 14-11zm-3-26c3-3 7 4 8 6 3 4 5 9 8 5 2-3 9-2 11 0 3 3 5 8 3 12-2 3-15 4-23-4-3-3-14-15-7-19zm-108 0c4-1 7 2 2 9-7 8-5 10-18 14-14 5-18-8-12-13 2-2 2-3 5-3 8-1 8 6 11 5l8-8c1-2 2-3 4-4zM90 261c6-8 4-9 14-18 9-9 7-12 12-19 7-10 29-18 40-24 7-4 14-7 21-11 6-4 13-8 19-13 14-10 23-22 43-20 8 1 15 5 22 9 3 2 6 5 9 7s6 4 9 7c21 14 39 23 61 34 7 4 12 8 17 15s9 11 14 18c2 3 5 6 7 9 4 4 4 7 6 9-1-6-2-11-3-17-3-12-6-20-13-31-2-4-5-8-8-13-5-8-9-19-13-29s-8-21-12-31c-6-17-17-42-29-56-2-3-8-9-11-10-6-2-32 0-40 1-6 0-11 2-17 3-7 2-11 0-18-1-21-4-18-4-39-4-8 0-8 2-13 8-4 4-8 7-10 11-3 4-6 9-9 13-4 9-8 21-11 31s-8 21-11 31-9 21-14 30c-9 16-15 24-20 43 0 2-3 18-3 18zm233 179c-1-4-2-8-2-9-1-4-2-7-3-10l-8-30c-1-4-4-17-5-20-2-1-14 7-17 8-27 15-44 23-75 15-8-2-15-5-22-9-5-3-31-18-33-18l-13 41c-1 4-4 14-7 23 37 18 72 26 112 24 21-1 42-5 62-11 3-2 7-3 11-4z" fill="#c4591a"/>
  <path d="M146 55c-11 1-22 3-32 8-5 2-9 5-13 8-5 2-10 4-14 6-10 4-19 10-28 14s-18 8-27 13c-5 3-9 5-13 7-5 2-11 4-11 10-2 8 10 19 16 24 23 20 23 33 37 45 6 5 18 12 26 14 7 2 11 2 14-5l6-15c4-9 6-21 10-31 3-10 6-20 10-30 3-10 7-20 11-30 3-10 10-30 24-26 3 2 2 4 4 7 1 2 3-2 4-3 2-2 4-3 5-5 2-6-6-9-10-10-6-2-12-2-19-1zm168 0c-5 0-12 2-15 5-4 5 1 10 4 13 4 3 3-6 12-5 14 3 19 27 23 38 4 10 7 20 10 30 4 9 8 20 11 29 4 10 7 22 11 30 3 5 5 8 11 9 13 2 31-13 38-22 9-13 11-18 23-30 29-28 26-34-10-49-10-5-21-10-31-15-5-2-23-11-27-14-9-6-16-10-26-14-11-4-23-6-34-5z" fill="#d48443"/>
  <path d="M282 157c-2-2 1-15 2-17 5-12 21-8 27 1 2 4 4 14 0 16-4-3-4-10-14-10-10 1-14 10-15 10zm10-31c-7 2-11 5-14 11-3 7-4 14-2 21 1 7 3 11 8 16s12 7 18 5c14-4 18-19 17-32-1-11-13-23-27-21zm-134 29c0-2-1-21 18-21 14 0 16 21 11 23 0 0-3-9-13-9-9-1-14 7-16 7zm14-28c-8 2-10 4-15 10-4 5-5 12-5 19 0 5 3 14 7 17 3 4 11 9 17 7s11-5 15-10c7-10 7-27-2-36-3-4-11-8-17-7zm9-27c-2 1-3 2-4 4l-8 8c-3 1-3-6-11-5-3 0-3 1-5 3-6 5-2 18 12 13 13-4 11-6 18-14 5-7 2-10-2-9zm108 0c-7 4 4 16 7 19 8 8 21 7 23 4 2-4 0-9-3-12-2-2-9-3-11 0-3 4-5-1-8-5-1-2-5-9-8-6z" fill="#050205"/>
  <path d="M213 222h2c3 0 7 0 10 3 5 7-9 13-15 6-1-1-1 0-1-2 0-4 1-6 4-7zm27 6c-1-3 0-5 1-7 2-2 4-2 6-1 4 1 8 3 10 6 2 5-3 8-7 8-4 1-9-3-10-6zm-12-29c-4 0-10 1-14 3-1 1-3 2-5 3-5 3-11 8-13 13-3 6-1 9 2 14 6 13 15 16 28 23 3 1 4 2 6 3s3-1 5-2c4-2 8-4 11-6s8-5 11-7c5-3 5-5 9-8 3-2 5-9 5-12-1-8-10-15-16-18-9-5-19-8-29-6z" fill="#421d25"/>
  <path d="M287 169l-4-4c1 4 6 8 8 9 3 1 7 3 9 1 3 0 10-6 9-11-1 1-2 6-10 9-6 1-9-1-12-4zm-113 6c5-1 10-5 11-10 0-1-3 3-3 3-3 3-9 8-13 5-4-2-5-3-8-7-1-3-2 4 7 8 2 1 4 1 6 1z" fill="#c5c6c6"/>
  <path d="M303 153c-1 2 0 6 2 5 2-2 1-6-2-5zm-120 5c0-2-1-6-3-4-1 1 0 5 3 4z" fill="#fcfdfc"/>
  <path d="M247 193c5 2 23 12 24 13 3 0-3-7-3-7 9-3 0-7 2-10 1-1 2 2 6 0s4 2 8 4c9 3 9 3-2-4-8-7-17-13-26-20-14-9-27-10-40 0-9 7 1 4-2 8-2 3 2 0-3 7-2 3 8 0 5 2-2 1-4 1 1 2 3 2-1 2-2 5 0 0 13-1 14-1 8-1 10-1 18 1z" fill="#fffbdb"/>
</svg>
